<mxfile host="app.diagrams.net" modified="2023-02-10T23:00:08.788Z" agent="5.0 (X11; Linux x86_64) AppleWebKit/537.36 (KHTML, like Gecko) Chrome/109.0.0.0 Safari/537.36" etag="7JmkKJGvDR5FiFQ-ADOP" version="20.8.20" type="github">
  <diagram name="Page-1" id="7a6c530e-6e37-e111-ec74-82921da8cc10">
    <mxGraphModel dx="1434" dy="741" grid="1" gridSize="10" guides="1" tooltips="1" connect="1" arrows="1" fold="1" page="1" pageScale="1.5" pageWidth="827" pageHeight="1169" background="#eceff3" math="0" shadow="0">
      <root>
        <mxCell id="0" style=";html=1;" />
        <mxCell id="1" style=";html=1;" parent="0" />
        <mxCell id="rcPoYwZRDyphzUQkZkZY-44" value="" style="rounded=1;whiteSpace=wrap;html=1;labelBackgroundColor=none;fontSize=12;fontColor=#0d0d0d;fillColor=#CFCFCF;gradientColor=none;opacity=60;fontStyle=1" parent="1" vertex="1">
          <mxGeometry x="148.5" y="60" width="981.5" height="570" as="geometry" />
        </mxCell>
        <mxCell id="23046e2b9bb16c14-116" value="" style="whiteSpace=wrap;html=1;rounded=1;shadow=0;strokeColor=none;strokeWidth=2;fillColor=#009BFF;fontSize=12;fontColor=#FFFFFF;align=center;arcSize=3;verticalAlign=top;spacingTop=4;opacity=50;fontStyle=1" parent="1" vertex="1">
          <mxGeometry x="173" y="90" width="927" height="516" as="geometry" />
        </mxCell>
        <mxCell id="rJtXdkc1sMicTIPMUd31-7" value="" style="rounded=1;whiteSpace=wrap;html=1;labelBackgroundColor=none;fillColor=#d5e8d4;strokeColor=#82b366;opacity=60;" parent="1" vertex="1">
          <mxGeometry x="190" y="100" width="890" height="495" as="geometry" />
        </mxCell>
        <mxCell id="rcPoYwZRDyphzUQkZkZY-3" value="&lt;font style=&quot;font-size: 12px;&quot;&gt;Worker 01&lt;br style=&quot;font-size: 12px;&quot;&gt;&lt;/font&gt;" style="verticalLabelPosition=bottom;html=1;verticalAlign=top;strokeColor=none;fillColor=#FFFFFF;shape=mxgraph.azure.virtual_machine;rounded=1;shadow=0;fontSize=12;fontColor=#0d0d0d;align=center;labelPosition=center;fontStyle=1" parent="1" vertex="1">
          <mxGeometry x="243" y="233" width="110" height="80" as="geometry" />
        </mxCell>
        <mxCell id="rcPoYwZRDyphzUQkZkZY-25" value="SEMASV042&lt;br style=&quot;font-size: 12px;&quot;&gt;10.233.147.75" style="text;html=1;align=center;verticalAlign=middle;resizable=0;points=[];autosize=1;strokeColor=none;fillColor=none;fontColor=#030303;fontStyle=1;fontSize=12;" parent="1" vertex="1">
          <mxGeometry x="248" y="183" width="100" height="40" as="geometry" />
        </mxCell>
        <mxCell id="686fVdz83tYppI1NJqFT-3" value="&lt;font style=&quot;font-size: 12px;&quot;&gt;Worker 03&lt;br style=&quot;font-size: 12px;&quot;&gt;&lt;/font&gt;" style="verticalLabelPosition=bottom;html=1;verticalAlign=top;strokeColor=none;fillColor=#FFFFFF;shape=mxgraph.azure.virtual_machine;rounded=1;shadow=0;fontSize=12;fontColor=#0d0d0d;align=center;labelPosition=center;fontStyle=1" parent="1" vertex="1">
          <mxGeometry x="720" y="233" width="110" height="80" as="geometry" />
        </mxCell>
        <mxCell id="686fVdz83tYppI1NJqFT-4" value="SEMASV043&lt;br style=&quot;font-size: 12px;&quot;&gt;10.233.147.10" style="text;html=1;align=center;verticalAlign=middle;resizable=0;points=[];autosize=1;strokeColor=none;fillColor=none;fontColor=#030303;fontStyle=1;fontSize=12;" parent="1" vertex="1">
          <mxGeometry x="474.04" y="178" width="100" height="40" as="geometry" />
        </mxCell>
        <mxCell id="686fVdz83tYppI1NJqFT-5" value="&lt;font style=&quot;font-size: 12px;&quot;&gt;Worker 02&lt;br style=&quot;font-size: 12px;&quot;&gt;&lt;/font&gt;" style="verticalLabelPosition=bottom;html=1;verticalAlign=top;strokeColor=none;fillColor=#FFFFFF;shape=mxgraph.azure.virtual_machine;rounded=1;shadow=0;fontSize=12;fontColor=#0d0d0d;align=center;labelPosition=center;fontStyle=1" parent="1" vertex="1">
          <mxGeometry x="469.04" y="233" width="110" height="80" as="geometry" />
        </mxCell>
        <mxCell id="686fVdz83tYppI1NJqFT-6" value="SEMASV044&lt;br style=&quot;font-size: 12px;&quot;&gt;10.233.147.11" style="text;html=1;align=center;verticalAlign=middle;resizable=0;points=[];autosize=1;strokeColor=none;fillColor=none;fontColor=#030303;fontStyle=1;fontSize=12;" parent="1" vertex="1">
          <mxGeometry x="720" y="178" width="100" height="40" as="geometry" />
        </mxCell>
        <mxCell id="686fVdz83tYppI1NJqFT-15" value="Kubernetes Cluster" style="text;html=1;strokeColor=none;fillColor=none;align=center;verticalAlign=middle;whiteSpace=wrap;rounded=0;fontStyle=1;fontSize=16;fontColor=#0d0c0c;" parent="1" vertex="1">
          <mxGeometry x="440" y="120" width="410" height="30" as="geometry" />
        </mxCell>
        <mxCell id="686fVdz83tYppI1NJqFT-16" value="Workers" style="text;html=1;strokeColor=none;fillColor=none;align=center;verticalAlign=middle;whiteSpace=wrap;rounded=0;fontStyle=1;fontSize=16;" parent="1" vertex="1">
          <mxGeometry x="440" y="559" width="410" height="30" as="geometry" />
        </mxCell>
        <mxCell id="B5byrt5AO6C_wENcY3lT-1" value="&lt;font style=&quot;font-size: 12px;&quot;&gt;Worker 04&lt;br style=&quot;font-size: 12px;&quot;&gt;&lt;/font&gt;" style="verticalLabelPosition=bottom;html=1;verticalAlign=top;strokeColor=none;fillColor=#FFFFFF;shape=mxgraph.azure.virtual_machine;rounded=1;shadow=0;fontSize=12;fontColor=#0d0d0d;align=center;labelPosition=center;fontStyle=1" vertex="1" parent="1">
          <mxGeometry x="920" y="233" width="110" height="80" as="geometry" />
        </mxCell>
        <mxCell id="B5byrt5AO6C_wENcY3lT-2" value="SEMASV045&lt;br style=&quot;font-size: 12px;&quot;&gt;10.233.147.12" style="text;html=1;align=center;verticalAlign=middle;resizable=0;points=[];autosize=1;strokeColor=none;fillColor=none;fontColor=#030303;fontStyle=1;fontSize=12;" vertex="1" parent="1">
          <mxGeometry x="925" y="178" width="100" height="40" as="geometry" />
        </mxCell>
        <mxCell id="B5byrt5AO6C_wENcY3lT-4" value="" style="shape=image;imageAspect=0;aspect=fixed;verticalLabelPosition=bottom;verticalAlign=top;image=https://cncf-branding.netlify.app/img/projects/harbor/horizontal/black/harbor-horizontal-black.png;" vertex="1" parent="1">
          <mxGeometry x="233.05" y="370" width="140.54" height="40" as="geometry" />
        </mxCell>
        <mxCell id="B5byrt5AO6C_wENcY3lT-5" value="" style="shape=image;imageAspect=0;aspect=fixed;verticalLabelPosition=bottom;verticalAlign=top;image=https://cncf-branding.netlify.app/img/projects/prometheus/horizontal/black/prometheus-horizontal-black.png;" vertex="1" parent="1">
          <mxGeometry x="233.05" y="430" width="169.57" height="30" as="geometry" />
        </mxCell>
        <mxCell id="B5byrt5AO6C_wENcY3lT-6" value="" style="shape=image;imageAspect=0;aspect=fixed;verticalLabelPosition=bottom;verticalAlign=top;image=data:image/png,iVBORw0KGgoAAAANSUhEUgAAASwAAAB9CAMAAAAvBq6hAAAAyVBMVEX///8AnNxycnV0dHd8fIDv7+9wcHMEndyioqXb29vJycp3d3rs7OzGxse8vL36+vmLi40AldkImNr4+v0Bk9nf3+DV1dbv+f2amp3l5eb29vaFhYgAj9cAo+bI6ffb7Pmr1vHn8fq/4PSsrK6qqqySkpVvvek6ot42tuqx4fWQ1PHR5/fj7/qLyeyk3PPu8/pCrONWs+S12vJ/w+pGreOG0O5iwulOvu19ze6+5vYSp+Pn7fhNseVfvek+qOGPyO2lz+99v+leseT95MVXAAAOQ0lEQVR4nO1dDV/aPBBPAY3zPWkVlWELamEClgIPKIPq/P4f6rlLWmibBN3cYJP+f3PDXtMm/14u95IyQgoUKFCgQIECBQoUKFCgQIECBQoUKFCgwPtQvX74bzyZtAGTyfj+2/WmO/S3ovpt3KZWvW4BOP6Fn6ftxyd70z3729C4b9ctalH4Yy1AKf5Sn06+FXwt8TSpW4KoFFMJYeLgdOxuuo9/CR76lqRJpWqhYla9/bTpfv4FeJiaKMrRZbW329zb5LotZppZqdIT0hpXN93jTeJxxdzT0UW/bbrHG0O3/TNUCbrq861cGG3yUNesfm8q13QL10Ubp+AvQEzFrdOuyfvMuo6u+21j66fN1YIq+PO46d6vF7/KVUzYVrH1Ia6Qrf82PYL1YfwxrtCFeNj0GNaF/z7KFerWlsQ+Tx/nCtiabkXoU53+Bq4A7U0PZB2Y/BaqhLv16QFBTmbIv8BSjHp302P506jm0lcYHlI1RqSJRMdWIvz0E3Gc0g2Id7jDaIsyR2XLcawpCHheAk04nXLHAb4+ecKmmylJUCdsfndd9/sgYhlSKKPe967rBq7v5MhyfnQC1+1+9+Cc6aaH82fRc2gc36GOtK6vZ5wxxueBxzJq1bOHFAX9QWOaUi7Ko8agj01aY7vH6Kd2Tbuu50g7BArGZnb4FQ0WhanVa7QSUijnnabDhcRyInsYN4EDztiOHCng7KHDP7VqjZ1BtwU2BwbLuNewFkpDnVnV/yoI4s7MnjtLuwbMcdnE4c1rtrR4jk9m3qZH9OvYufxyfnZ5ZZRX65S1g+a8xa2Z1+il7RTlVrP7HHHeGrrdVtqsU2cYDELKaTgIhk6mCXUVN/58f3//3NxBkB5h//ZNwLMu4d9L/QWuTO3EPQ/zR41cfLmpHZQRB6fHh/pT7kFzOAsHjSDoDK2sTQdSop4bBF1vlFsbYVr6zUbQaM55bm2krJ9n6xj7YHxceyCsnRByInuq4kBcA/491l/g0NSwhtLznLRUrlzontx+rVwqlfAHUb47092qL+06+/r1q+oTwPxiDgiY6qnC1DQ1UTJbFeiDYaRkB0eAvT/Bs3RjriRkHRnJ0je8k2SVctLSbun0S+4al6firF0ph+vtlvdOlDu59cRQa9xQuUBqJSsEqvdwjM9TvfdCJlTg5CB5rDlIzYKhmDRLjF9BuXS6JCt1XJyau9axFBxc3BwdHd3eyeYVRbnuf0e6Ic9wvtizAx0u7+uHCvokey7I+qLB2ZtklUq1M1NDJOtuIT0/urmTqnaTusKtYPt0P3meO8cVcU5+uq7Ij+oV7T1kKTnTPbj3qXakR8CVtGdos0p6Ot4mS3/xhKy9zJGdG2GdlpP6Fn/PTvKrvbLKlq3LzYBrwLmOmVigYTHbRAkQL7E7WpOJtkI+5I+RZZjkOrKgO0K5dpJLY+dq+fVvv4SPMbMAd+qK7QYvPXoNXyPFdoNJn76Gs5GlRI2U8SgMX1uiCW5IUrwHNAMXmqF8wQco+7k2zcImaBfiiXiGFqqmLtZfkNBa9iE0+xl3ARwlT1YAgyHPMTKP8y+5qJGy1kAKunMRING6kl/GOx9onBcgsRyTuE6yyBH0J15yarj66Byb8/JC6yXGfod46UAPXHD7eQpzqu+RIFpKIGjskEEIAvqjK8PJBVePpPsDlIuHA9JB35VaanyI0+1WHSc+vXh6rpWsE9RoMceO8FPek5C4zT3hNmM+cWlMCnhVHnkWZgk+0ibxk6gRgkbiRiLCAZ9sSJpJVATeKZzGpMCJXDJjVFdDxD4dKM/vNjXOtZJF7nZL0nzXtE9R9qiSVa2pCFBgtKAYnDv9BgkXU4w6PTKgQsD4C/FYYtkpi6rVUAg4e7WDxUQGTj1QVMbn+hvnR3uFhjZxKdZLFq7PSNY5as+OKhfAyXqwsFq2SM3wHgnufd8fuuSapuckGwWk6c993yO2n555Fh+Q748geWyQQc6w2WTgD3WjLUlfPHtst5b8sl6yLmLNuihpxRL4MJfugyt9dEZ7gU1sezBKZ7BEFOR3bJC4w1wICMp1j00CL58i5NYP19ZsErlSHdOThUMqfluf6wCoSGN5VQFvVG+xEHvpeXid+A2MMYs7TJMwhglq6QQQNHILpIo/Bk24pdlTg/bpLnNkH7ha2rG1apaYfVcyrtQuhXEPS6k+f1tmolZGgD8VG6JAo1qqY3qasZ+GcOfsXWRpwp1LM1kneGvhsgBpu2aisc9L2/Ht90eGgi1LV5rOO6YphzQha1dF5V1kqe1KNTNZwlIJlwWUW+ssx4CgtlxKZriJLIPKrBBkJHqy0MlLuy0XWfJO9JmW2rvI0jS8S5OVMWlnqNKSQSTLaN8JmrYUWUwb6HH2FT0njYA7ji5qhOXRSRk2PVk5l2anlPUGhWYpQz54n2aZWY7JinG1c3YsMzBy8r2hWVdpsrrPfUyOZuMdHg29gee3WJ4SRsOXgffcV5Kj4O/3vMFLmzpJcky7aXK/lHZMb3N2WRj4IwX77yKrsq80PF+SVa5VEiRJs3j5BLJ27/SXRWSmISDoZUJA6oRJBb4ZZRPyNI4ASWOY4ZGyYSOWDKSbZigeZhzTq0rKIV2QZez2h1bDfFpwd5HNwpi1ZnQ7hFldOILV8MUm3YjHVUOcaE1gye+3ZuChpkNACBptYGnW6s89IkPAuAmnHUK8eRSFwy74roJgQxH/JrW4ZBxShCTL1PEP+VnZPGq5vLfIvGBaUhfgpzqZzFKb1JnlETJ3pIMArmaDXEfCLHEnBPed89h1YPcEQ0AUYNBoz5ImTgguO05ZNGg+Ifd4zkR/7yugI9Ym1LLs6P+gZlUuYkBEWCofpf0qtKOG3D6RSZHlXdswiWC0zchh6Jf2CHlJ3EzwxTsk8LHUzPisGyugWPYcCGe8FjZxWh4hy4orn3ZJI+TO2HDzZcb0POOQItbilJ4KzzilhjerGh9iAnCZ/5vIij0EPgPP60D8EqbsFHUewaZde14TzFgmkcMh4iYdD5qABevz5RKBkTRpNDuGu6NjKlMyasrmj5J1kjo3E89jtcOQocEqXebKj3KEEAHib92hlVnoYFp6wgmo5neJWBwiQBDYHT+fIux7KzZLJo7pWdYhRawn3DkqLzNoSY/Khtbi0abWoKe6eFmOM6s/Gk3VEBCCxmg0iriafAbTNRr1qdKEYo7ZSNd5TNKemmZeU2x4kUsWi6yy7sonIoeaPrW62N+R/GXlx26ZJEbBih1tJ9iBG6ysKsq/JrJEDi19AJ9bSa1Rn2gEcSnsI1sjVXpXvGwhkt8iYVvLSdaVdRDKneJAJIqUEqFMKufM6qOaYpH5BBMTBklKsHI/vPBFj2s5h1R0+mN+lqmhGkjvlbIZ7sty3upjPy9gJcwnJK7rCllU5Jg19kskt7QpLCvdhE5XvSAmKpzgJirl/Lc1y7TX4SfzWcIUpA3mORqF0l26RriPz3T3NJ/pCnMhIGWt3sANOp5v5XOgPPQ6QbfZy6+MsGj2ml1swoUXYfKyBHbi4ExRExFI72lwK8kCRm4V2ZeYrANdw2M9WapNPztAH798sS/JOTzGHTXlksIVuEv9jAdleYnAzm7WYvMgkTRbmSatZiII5pjGWP1Wyp5gS01PishRh0pClgqxsIt8lk662BiST8LgZpRMkLNzKtgpl2p3F3cV+TjL+prPkhTK2jCFGt7zsPcAHzopbxODRtLsDZ97GGj7qRoQxDik+/I8fBZncKu/kqvYRGhKeaZdNDFZGmk5JsvQMN5yVFZvhi5xdoE5PljuzRI/Ne32O/CJmpbcLcrZMygURDhomfgLWYSAFou6mFMQNotD0Eg8WSqEuQlBYxBiSMQY5iUa0VtvWVxgqkQNXk+WeZQsxKiO9TJBlqFdRZIFHxSydlB8kzl0JeZejINTw56fDgSE1SEabyuEMGVZcWUzG0v1aLwFAfPFPl3UsoaPW5ep3yAi3I6XBiwYvvX+79UOQHN8x4RFIwWHYpU4NLSTm3MO4w9v9+Hs+KJWOaic3h6Z8xCRj8PruiJ+uU9X7Clan8B1MV3VTdfyWQ8buq7YiDVkqSbRv/4+ijm5JXDN6b203XZzlF3omB/vS2sMs0Ejjx6kAtmDVlaiK+z8U3iDrTaEczPf90Mr70LB5JyCwFf3H1mMv4Lglef8C/rZ3wtz62iocYOMthRh2tkmm+QOfupXBgSyMc8H4sRtePPXnmbZMlWhjQJRNcSflc77J8G1lfbIRc2Qq9skLYfLAFG7vQGz859/EiIWO7zBEv3o2IhBmIl2wFXvewEKOs+5fCrnz6JJ8GJKJ38yTOK8FgvjCBA8ADf1phx8GCz8zexmLeb/697Cz8JuC8vjiC/gcT3PE3XTBSmUjWyQBANRo7BJky0ypeDO26J6MdgezvDbClirQ0QVEDFy4fO9KByCAevBL42QxwUzm3T74h1DC3dW2uQFQ59w00NYIxqRfFMwdJK6KpIS9KJWK8JaM3ngVlKKDZDTsNVqhVjSx02llBoKq58XNnFl9CLepGdhdWGlkilJZdm+uQiXbczKUGMR+hOjMcy9nOklkmb25Uw2SfaCNJDEbeTKnikJYxr2vEFvTvPJZ85Gc6/pjUeYeKf1bXBGFYzrOVKoyAPqdrZZmAfk4ovvtufLoLJ4UL/1z/z9krER28Yvk5RotGWgZyJI5Wsrp2CCh/enHYDV/ufPM6xEdWzJb4F/gzUQTz97ru8dEHStIklasoIqierj9K3t8O0tXQN1sJ8m0/qCsDi5l+wAqU/HW26rFFSfHttU/ncfy20ydYu2HwumtKg+3Y8n7ekU2ZpO25PHh4Kot2BXAZvuRIECBQoUKFCgQIECBQoUKFCgQIECBQoU2Bz+B4jcQ/XjsyJqAAAAAElFTkSuQmCC;" vertex="1" parent="1">
          <mxGeometry x="435.04" y="360" width="120" height="50" as="geometry" />
        </mxCell>
        <mxCell id="B5byrt5AO6C_wENcY3lT-7" value="" style="shape=image;imageAspect=0;aspect=fixed;verticalLabelPosition=bottom;verticalAlign=top;image=data:image/svg+xml,PHN2ZyB4bWxucz0iaHR0cDovL3d3dy53My5vcmcvMjAwMC9zdmciIGhlaWdodD0iNjAiIHdpZHRoPSIxMjAiIHZlcnNpb249IjEuMSIgdmlld0JveD0iMCAwIDEyMCA1OS45OTk5OTgiIGRhdGEtbmFtZT0iTGF5ZXIgMSIgaWQ9IkxheWVyXzEiPiYjeGE7ICA8bWV0YWRhdGEgaWQ9Im1ldGFkYXRhMTE1Ij4mI3hhOyAgICAmI3hhOyAgICAgICYjeGE7ICAgICAgICBpbWFnZS9zdmcreG1sJiN4YTsgICAgICAgICYjeGE7ICAgICAgICBsb2dvLXNwYWNpbmcmI3hhOyAgICAgICYjeGE7ICAgICYjeGE7ICA8L21ldGFkYXRhPiYjeGE7ICAmI3hhOyAgPGRlZnMgaWQ9ImRlZnM0Ij4mI3hhOyAgICA8c3R5bGUgaWQ9InN0eWxlMiI+LmNscy0xLC5jbHMtMiwuY2xzLTMsLmNscy00LC5jbHMtNSwuY2xzLTl7ZmlsbDpub25lO30uY2xzLTEsLmNscy0yLC5jbHMtMywuY2xzLTQsLmNscy01e3N0cm9rZTojYWZhZmFmO3N0cm9rZS1taXRlcmxpbWl0OjEwO3N0cm9rZS13aWR0aDowLjI1cHg7fS5jbHMtMntzdHJva2UtZGFzaGFycmF5OjEuNSAxLjU7fS5jbHMtM3tzdHJva2UtZGFzaGFycmF5OjEuNDggMS40ODt9LmNscy00e3N0cm9rZS1kYXNoYXJyYXk6MS40OCAxLjQ4O30uY2xzLTV7c3Ryb2tlLWRhc2hhcnJheToxLjUzIDEuNTM7fS5jbHMtNntmaWxsOiNmMDVhMjg7fS5jbHMtN3tmaWxsOiMwMTAwMDA7fS5jbHMtOHtmaWxsOiNhZmFmYWY7fTwvc3R5bGU+JiN4YTsgIDwvZGVmcz4mI3hhOyAgPHRpdGxlIGlkPSJ0aXRsZTYiPmxvZ28tc3BhY2luZzwvdGl0bGU+JiN4YTsgIDxnIHRyYW5zZm9ybT0idHJhbnNsYXRlKC0xLjMxNjg4NzcpIiBpZD0iZzk2OSI+JiN4YTsgICAgPGcgaWQ9Imc5NTEiIHRyYW5zZm9ybT0ibWF0cml4KDAuOTI0MTkwMjMsMCwwLDAuOTI0MTkwMjMsLTE4Ni4yNjE5MiwtNy4wMjMzNDc0KSI+JiN4YTsgICAgICA8cGF0aCBpZD0icGF0aDg4IiB0cmFuc2Zvcm09InRyYW5zbGF0ZSgtMC4wMywwLjAxKSIgZD0ibSAyMjcuNTYsMTYuMzUgYyAwLDAgNS4xNSw4LjMgNi44OCwxMS4yNSBhIDAuMTMsMC4xMyAwIDAgMSAwLDAuMTUgMC4xMywwLjEzIDAgMCAxIC0wLjE4LDAgbCAtOC44OCwtOS4yOSB6IiBjbGFzcz0iY2xzLTYiIHN0eWxlPSJmaWxsOiNmMDVhMjgiLz4mI3hhOyAgICAgIDxwYXRoIHRyYW5zZm9ybT0idHJhbnNsYXRlKC0wLjAzLDAuMDEpIiBpZD0icGF0aDkwIiBkPSJtIDIxMi4zNyw0Ni42MSBhIDMwLjYxLDMwLjYxIDAgMCAxIDYuMDYsLTguNjEgMzEsMzEgMCAwIDEgMywtMi42NiB2IDYuNTcgeiBtIC01LjI1LDYuMDcgMTQuMzMsLTcuMyB2IDE2LjY4IGwgMy4yMyw0LjI0IFYgNDMuNzIgbCAyLC0xIGEgOS43Miw5LjcyIDAgMCAwIDIuNjcsLTE1LjM4IGwgLTcuNCwtNy43MSBhIDEuNjQsMS42NCAwIDAgMSAwLjA4LC0yLjMgMS42NSwxLjY1IDAgMCAxIDIuMzIsMC4wOCBsIDEsMS4wOCAyLjIxLC0yLjEyIGMgLTIuNjEsLTMuMzkgLTUuODEsLTMgLTcuNjcsLTEuMjcgYSA0LjcsNC43IDAgMCAwIC0wLjIsNi42NCB2IDAgbCA3LjQ0LDcuNzUgYSA2LjY1LDYuNjUgMCAwIDEgLTEuNDQsMTAuMjYgbCAtMSwwLjUyIFYgMjkuNzMgYSAzMy43NCwzMy43NCAwIDAgMCAtMTcuNTYsMjIuOTUiIGNsYXNzPSJjbHMtNyIgc3R5bGU9ImZpbGw6IzAxMDAwMCIvPiYjeGE7ICAgIDwvZz4mI3hhOyAgICA8ZyBpZD0iZzk1OCIgdHJhbnNmb3JtPSJtYXRyaXgoMC43NTQxNzE5MSwwLDAsMC43NTQxNzE5MSwyMi4wMTY0MzgsNzAuNzMzNjI0KSI+JiN4YTsgICAgICA8cGF0aCBpZD0icGF0aDEwLTAiIGQ9Im0gMTQuODYzMzg4LC02Ni45MzY4MDYgaCA2LjE1IGwgNi43LDEwLjggNi43LC0xMC44IGggNi4xIHYgMjUuNiBoIC01LjYgdiAtMTYuNyBsIC03LjIsMTEgaCAtMC4xIGwgLTcuMiwtMTAuOSB2IDE2LjYgaCAtNS41IHoiLz4mI3hhOyAgICAgIDxwYXRoIGlkPSJwYXRoMTItMSIgZD0ibSA0Ny4xNjMzODgsLTY2LjkzNjgwNiBoIDUuNiB2IDI1LjYgaCAtNS42IHoiLz4mI3hhOyAgICAgIDxwYXRoIGlkPSJwYXRoMTQtNiIgZD0ibSA1OS4xNjMzODgsLTY2LjkzNjgwNiBoIDUuMiBsIDEyLDE1LjggdiAtMTUuOCBoIDUuNjUgdiAyNS42IGggLTQuOCBsIC0xMi40LC0xNi4zIHYgMTYuMyBoIC01LjYgeiIvPiYjeGE7ICAgICAgPHBhdGggaWQ9InBhdGgxNi0yIiBkPSJtIDg4LjM2MzM4OCwtNjYuOTM2ODA2IGggNS43IHYgMjUuNiBoIC01LjYgeiIvPiYjeGE7ICAgICAgPHBhdGggaWQ9InBhdGgxOC0xIiBkPSJtIDExMy4wMTMzOSwtNDAuODM2ODA2IGEgMTQuNTEsMTQuNTEgMCAwIDEgLTUuNSwtMSAxMy44OSwxMy44OSAwIDAgMSAtNC4zLC0yLjggMTEuOTEsMTEuOTEgMCAwIDEgLTIuOCwtNC4yIDEyLjg4LDEyLjg4IDAgMCAxIC0xLjAwMDAwMiwtNS4xIHYgMCBhIDEyLjg4LDEyLjg4IDAgMCAxIDEuMDAwMDAyLC01LjEgMTMuMTksMTMuMTkgMCAwIDEgNy4yLC03LjEgMTQuNjcsMTQuNjcgMCAwIDEgMTAuOSwwIDEzLjg5LDEzLjg5IDAgMCAxIDQuMywyLjggMTEuOTEsMTEuOTEgMCAwIDEgMi44LDQuMiAxMi44OCwxMi44OCAwIDAgMSAxLDUuMSB2IDAgYSAxMi44OCwxMi44OCAwIDAgMSAtMSw1LjEgMTMuMTksMTMuMTkgMCAwIDEgLTcuMiw3LjEgMTQuMzYsMTQuMzYgMCAwIDEgLTUuNCwxIHogbSAwLjEsLTUuMiBhIDguMTUsOC4xNSAwIDAgMCAzLjEsLTAuNiA4LjA3LDguMDcgMCAwIDAgMi40LC0xLjcgOC4xNSw4LjE1IDAgMCAwIDIuMiwtNS42IHYgMCBhIDcuNTQsNy41NCAwIDAgMCAtMC43LC0zLjMgNy41Myw3LjUzIDAgMCAwIC00LjEsLTQuMyA4LjMxLDguMzEgMCAwIDAgLTYuMiwwIDguMDcsOC4wNyAwIDAgMCAtMi40LDEuNyA4LjE1LDguMTUgMCAwIDAgLTIuMiw1LjYgdiAwIGEgOC4xNSw4LjE1IDAgMCAwIDAuNiwzLjEgNy41Myw3LjUzIDAgMCAwIDQuMSw0LjMgNi45LDYuOSAwIDAgMCAzLjIsMC44IHoiLz4mI3hhOyAgICA8L2c+JiN4YTsgIDwvZz4mI3hhOzwvc3ZnPg==;" vertex="1" parent="1">
          <mxGeometry x="440.04" y="417.5" width="110" height="55" as="geometry" />
        </mxCell>
        <mxCell id="B5byrt5AO6C_wENcY3lT-8" value="" style="shape=image;imageAspect=0;aspect=fixed;verticalLabelPosition=bottom;verticalAlign=top;image=data:image/png,iVBORw0KGgoAAAANSUhEUgAAAgAAAAEACAYAAADFkM5nAAArLklEQVR42u3dd5ycVb3H8c+Z2TRCCYm0kEqySSDSBEHalVAE9HoR6SkQEeSiWKkJAqtIQkCKKCLIFYQUNCgioiJSNPSigAoku8um0gQTQkKyZebcP36bFyFb5szMU2Z3v+/Xa19o9sw8v3l2Zp7fc8rvgIiIiIiIiIiIiIiIiIiIiIiIiIiIiIiIiIiIiIiIiIiIiIiIiIiIiIiIiIiIiIiIiIiIiIiIiIiIiIiIiIiIiIiIiIiIiIiIiIiIiIiIiIiIiIiIiIiIiIiIiIiIiIiIiIiIiIiIiIiIiIiIiIiIiIiIiIiIiIiIiIiIiIiIiIiIiIiIiIiIiIiIiIiIiIiIiIiIiIiIiIiIiIiIiIiIiIiIiIiIiIiIiIiIiIiIiIiIiIiIiIiIiIiIiIiIiIiIiIiIiIiIiIiIiIiIiIhIz+XSDkBERKRd3ruTZy4aC5ntyPB2y06jX5l/gsulHVZ3oQRAREQ+4H12SD2HZzz7ecdmDhZlsty7eKR7I6kQDq55uGpwnyFfdfhzgB03/LuDf3vnftRrfdWVt9WMXJ/2qerqlACIiFSGfYGzgT2AJmABcA2wNKkAhtT7XTOeecD4TX61DqhZOoqrcM7HGcPUmoa+zb2bf4PjiA4beZ72rs+Rc6cNX5nUuemOMmkHICIifAN4HJgMfBT4GPB14B/AoUkEsGO9H5Px/IW2F3+AfsCsYXVcGncczX1bru/04g/g2MfReHsS56U7Uw+AiEi6JgAP0vH38SpgLPBWnEEMq/N/pnCykcOz29Jq91IcMUyaUbsLzv+DwJvTDPlD75g27qE4z0t3ph4AEZF0nUfnN2MDgDPjDGDkq344YT0NWRynxhWHdxxPEdelvM+cEOd56e6UAIiIpGufiNqULJdjtyKa7x5XHBnvxxXT3jmKai8fpgRARKSnyxA8sc9DPq4win1u73xssfQESgBERNL1VECbp+MMoMXzAoQlAc7axsNR3NwCz8txnpfuTgmAiEi6vk/nF99VwE1xBvDaaLfMwf0BTVuyWW6LK46sz80Hggv9OM+dcZ6X7k4JgIhIuh4GzqH97u/VwPHEvAIAgBa+DLzdaRvPJQ07uYVxhXD79J0XedyNIW09/Gr29LELYj8v3ZgSABGR9F0L7AfcAfwTeK7133YF/pxEAEvGuYZshgNbj72p1Q6+urTazYw7jubGpnPA31Og2QLX6E5L4rx0Z6oDICIiH/DeDW3gQOc5gDz9gFp6c9/S4S6xqns1NT5T17f2DO85Fxi90a+Wec/1zU3N18+vGd+U9qnq6pQAiIhIxTrpe3VDM1m2hfzKudPGvJp2PCIiIiIiIiIiIiIiIhVOcwBERCQe3mdHLGaLxSPdqjQOP+WqF/rnmjc7yTl/qIPBHtaAezGfz90576JxL6Z9etKmBEBEpHvZGdtO2GFLCp9P9Ojeu6GvcpLzfAX4BJAF1gEPAFcuHe0eSyKMiVfUHu28vwnYrr0owc/OVK0/647zdl+b6PmpIEoARES6h3HAT4EDN/n3vwFntP43VkOW+X6ukTkOjumgicfz3aXVribOOCbNWHgqzv2MwrVununfuPnBN9cMfj/uc1OJVAhIRKTrGw88QduLP1hvwAKs0FCsMk3c3MnFH8DhuHRorf9yXDFMmlG7i3fuJsKubx9f23vNNXGfl0qlBEBEpGvLALOBAZ202QyYA/SOK4hh9f5APJND2jrHzCHL/MA44nD4ix30KeIBX5xy2Ssj4zovlUwJgIhI13YgsEdAu5HAZ+IKwsPUIppvmV3faU9BSabWNPT1js8W+bCqXFX2c3Gdl0qmBEBEpGvbp4i2+8YVhPPsWUz7vAtKWorS0q9xONC/hIfuEtNpqWhKAEREurbw7u7i2harqOGForrpA3nvSxricOTjPC8VSwmAiEjXVsz2vK/EGEdxdfod9VEH4P1my2l/W+UCD3RLYjsrFUwJgIhI1/ZH4O2AdmuBu+MKwjt+U0xz8twbdQxzpw1fCTxd7OPyGX9/XOelkikBEBHp2tYA3whodxHwVlxBbLuS2cDLQY0dc5ZWu5fiiMPB94t6gOfpeReMSaQ4UaVRAiAi0vXNAb6EVdzbVBNwAfCDOAN4bm/XnM1wDPB6gabP9GsmtjoAs6eN+ZV33BrY/L18xp2Gcz7Oc1OpVAlQRKT7GAxMBvbESvC+iCUHDUkFsGOtH5LNcC2eY/nwNWadhxt8Hy5ZPtStK/X5Qxx1fW2fgWv9TcCpnTR7LeP5/B3TxzyV1LmpNEoAREQkciMa/PY+z/7k2RrHa+83suDf492aJGOYPGvR4T7P14FDgH6t//wKzs1rIvOD+ReOejft8yQiIiIxOmXGy4Om1jT0TTsOERERkVRpCEBERKSAU2a8PCbvqgbnXL4l4zKL51xQvTztmMqlBEBERCrOXs/6Xm9txSE4DnSwLZ7/eHgyW8X9i0e69UnEcPw1y/r1aVx3tsd/BdzwTX79gsddNaZx9LyaGld88aEKoARAREQ2djDwRWAvbOLcYuA+4CbgvSQCGF7nj/LwQ2BUO79e4R3nLRvl5sUZw0kzXx6Rpeq34Hct0PQ+Gt3EOTXVq5M4N1FSAiAiIgB9gZ9Ch1v6vg4cCzwRZxDD6vyXgBspVKfGcenSUe67ccRw/DX/Gti7sddTwOjAhyxoamw+bH7N+KY4z03UVAhIREQccBsdX/wBdgDuB8bHFcTwOr8/cAMh1yZPzdA6/7k44ujd2PvHhF/8AQ7q3bf3t+I6L3FRD4CIiBwNwbX8HwUOiiOIYXV+AXBgEQ+pXTqKcbjoxuCnzFq0cz7Pvyj++riyV2OvwbfVjExkfkIU1AMgIiJnFdH2QGLoBdip3g+juIs/QPWIOvaJMg7v/TGUdnO8dXPfpglRn5c4KQEQEZFPFNl+v6gDyHn2Kulx8LFIA8m7QpP+4nlsCpQAiIj0bA7YvMjHbBV1EN4XHYMFn2HLSONwpcVhwUQbS9yUAIiI9Gyewjv4bSr6IjhZ3igx+tcijqT0LZMdb0YcS6yUAIiIyB+LaNsMPBR1AI3v8ThQ7AQ63wIPRxuJe6zUR/ocC6I+L3FSAiAiIt/HLuwhfgr8O+oA3tzdrXWeW4t5jIffvDbaLYsyjqxvuQcouqiPgxfnTq9+IerzEiclACI92+bAHsBxwDSIdka1dBkLgbOx4YDO/B04P64gmvNcglUeDPFOpoVzoo7h9uk7v+NxM4p8mPe483Cu0PmrKKoDINJzfBrYHStwMhqoxoq7bOxU4Pa0A5XUHAtcDwze5N/zwBzgK8RcDnhEgx+Xz/E72i8DvMEb+TyfWz7GPRVLEN67SbNqf4nnuJDmDi6ZPW3MZXGelzgoARDpORYCYwq0UQIg/YCjsOV1WwCvAr8HapMKYESDH5DPcz6eLwLbbvSrlcDsbIbLG3ZysU64O/6XPtu7vnYm8E2gqoNmaxz+m7Onjb0lqXMTJSUAIj2HEgDpWrzPjFjMmFwz2zrHO0uXs5AJriXJECbPemUseXemJ3MY+OEOGr2ngYy7rynPjfOnV0c+H0JEJGoLsTHezn5OSTtIEUlGVflPISIiUrlGNPi+TTm2yfRh7fKh7j9JH//4K+q36u3zx4I/DNww8Bkcr4N/qFem969uO39kaTUQyqQhAJGeQ0MAkqRR2KqSLYC3gQXEsHywI3s963v9ewBf8PAFZ3FsWPX2BnCPa2HWknGuIe44Js9ceLbH1QCDOmjyPp5rVjSt+M4jNRMSHd5QAiDScygBkCR8AqsrcMAm/54H7gIuIHypX0lGNPgRPsc9HnbrpFmTd3xj2Sh3Yxwx2CTCRbeCmxLS3uMeam5sOnp+zfg1cZ6bjakOgIiIROVU4K+0vfiDXW9OAJ4lhs2ENhiy0O+Yz/FYgYs/QG/n+fHwOh95LQGA3q/Wzgi9+AM4/CG9+/b6Od4ndmOuBEBERKJwMHAL0KtAu0HAPcCQOILIZplD2zoGHfIwa2i9/3iUMUy+YuHueM4t+oGez0+aWXdsHOelPUoARESkXBngB4RPLN8G+G7UQQyt9Ud4+GSRD8tmfLSxeNy3KfX6mvEXRX1eOjxUUgcSEZFuax8Kd7lv6mSgf5RBOMdJpTzOw+GDF/qPRBHDUdfX9sFzVMlP4NnjpJkvj4jyvHRECYCIiJRr/xIe0xerNhilvUp8XLaqit2jCGDgGkZRZmLjXNWuEZ+XdqkOQHS2whKqdRS/paV0bEsg2/q/V1F4s5JK0wvbcAdgLdCUdkDdTBW2zAzsc7cu7YB6qEEJP64jA0p+ZD6aWPKZ/MBMmfP4nPdRn5d2KQEoXj9sjOlwbGOVXWi7oUoOWA68DLwI/Bn4C133y38MtrRnHLa290bgkYiP8VHgMGDv1uNV0/6H+T2gDqtL/kRrHC+QbmKwLdYFugewJzAe+2LbHLvL2VgeeBd4Hahv/akDnmv9Cd2Stafpi80snwDsir0XR9J2wpnHPnsLgVewGekPAe+k/QK6uVKL60T6d3Gw0sPQkh6ciSaWKufeyZf5beQ8b0d5Xjo8ThIHqSCHA3/q5Pc/Ac7q4Hf7AP+LLWMppXtnNbab1tXYl35cHgQO6eB3bwLbBzxHP+AI4BjgSD68GQfYOt4rI4h1MPAl4DRK/dCaxcDPsX3KV0QQV4g+wETgC9iFKYrhtPeBp7AL1lxsE5YQnwbuS+h1d+YZot9O+CDgTODz2PuyFHksAb8ZuBtoTOsEdWOfwBLyYjQCHwEiW/c+tN7f4mwDoWLlcs1st2JnV3YScNT1tX0GrvXvUMYwQI7cyDun7bw4qvPSEc0B+LDR7fzbnsAfsC/mL1D6H3VLLLlYiCUaW6Xw+raj8y6y0cA12EX0bqwu/LbttKsuM46tgeuwC/ellHfxBxjR+jx1rfFvHeVJa8fE1mP9DLtARfU52gy7w72s9fn/ivWKdBWvRfhcBwCPt56DSZR+8Qf7+0wA5mHndSr67ova08A/i3zMnUR48Qdwjl+U+ND7o7j4A/zha9WNHv5Y+ovg+SQu/qAPwaY2TgB6A5djb+wjIzxGFruj+RelTZwp17h2/m0Udgf9Crb1ZaEL6GhK92lgEfB1Cq8XLlbf1vj/gfVgRK0/9qU1h5jWMG/EYcnFuHKfKEFR9L5sDtwKPEo8xWKGtD7/E5T3PpYPy2Of6Vxg+3eAi6MOYulO7gHg4SIf1gJcEm0kmZmUOCzpvZsR9XnpMMqkDtRFDMUu/FsDDwDTiW+exI5Yd31iRR9ajd3of/fB7pz/id3tZwOfo9QegIuBe7FuvzjtiO1f/s0In3NzrCfoxJhj39QzCR+vHOX2AOyMzYOYmkCs+wB/I/nPX3f2EDZMWqie/UpseHFZHEH4FiZTRDLqPecvHe2eizKGudNGP+ccV5fw0LvnXjj6rjjOS3uUAHxYFpvY9zDwXwkcry/WLXl4gq9xwx3lWGxYo4a2E9UKGYx1VxfjcqzwR1LvuQw2HPCdCJ7LYXeNByUU+wZNwPMJH7Mc5SQAe2Hd/YX2KojSFsAvgNMTPGZ3dws23PJ0O7/z2NDix7GNgWKxbJx7LZvhAODvBZquB85cVu2ujSOOxp2qL8Qzt4iHPNLU2HwKziU2oVkJQFt3QTTrQQP1aj1mUl98Y4FPYXeWpb5OR3Hdp1/HelOK9Q42Ee6F1v++W8JzXILdlZTjZOC4Mp+jFC/StSaslZoA7IytlIm7Z6g9WWxy4OQUjt1dPQrsi91snAJ8Des52xGbzBnnJGgAGnZyS5YuYx/n+GJrPBsPTazwjhuqHGOXjnY3xxXD/BNcbs606snO8Q18p6sk3vfezeg/cPWnktwICLQKoFTvYhnui9iX3mosmeqPXRj3wD4AoV3qYGOSBxE+htaRzlYBgK2l3wwb6ijHscCvA9rti93ZhRxvDTa+fi/wJO0vEdoemyB2PNaNGPK8Tdgs5UJ3BO2pwiaODQ9s71uP8wLQgG2Dmmv9GdD6MxD7chyPTczsyI3AlwOOWSmrAHal+Ilgg7CeqFFFPKYR+7z8A1iCLQ3NY5+/7bHzuj/FrTFvBA4FHkvjxEm89nrW93pzC7btm+G9umq3OunjT61pGNDSp+k4T+YwyA8FlwVew/Gwy7XcNfuiXV5P47woAQi3DpsAdjuWURYa59oGm+z3LcJnpX8V+FGZr7FQAhCFN4GzsZ6LzvTGkqSxBdp5bGXEtyluPfFIrP74ZwPavoQlZsWusz824HWCJRk/BK6luMlwg7DkZAK2mcoefJA4noYNPRSyE5YQFXIuhe+yf4mNjZfiBoqf1T2f8N6Vl4BZWDfyewXaVmHn81sQXJZ1KZbEJH6BkAr2sK8aMYQD8xk+iWewhyYHy5zngSWjeT7JLnspz+HYxaaYn3XY3tbblHjMHbE74JBjvU75tbEfLOE1FvqpBW7CuvOK6fo/P+C5m7Au9lI5bCJjyOv4agnP/8uA511LdEnXDtjkxWex4khRWhjwWk6N+JidOTEgHo+N1Z5H6UOWR2JJWcixbkrw9UvnjsRuuF7BbgzqsGT8RBIavh5a508aVufrh9V5397P8Hr/5LB6f2DaJ0rCFJsAPEz5a97B1jCHXpi/UeaxokgAmrEKe+dS+jK0LbDZvoWOdVoE5xeswFKhY71FcevJHTYMUeh5p0X0GuJWSQlAX2wWeKF41hBNLYSh2IWk0PFyJDsHSNraHltR0Nnf6QUK9yyWzvvssDr/k44u/Jv8NA+r919P+6SVQqWA2+exrsZvU/6YPFgvwonYjO4dC7Q9E+vWTqNb6Rks455H+SU6z6BwXe5fYcV0onABNhbeWcKyDVZU5pbA5xyBjdd3ZkPXvxTnyxSupeCxv9efIzjeMqw2xLN0PgySwVas/HfaJygtUy6v+2g+67+G9/sBffHUe8edrzWumP1IzYRCQ5/lGozN7xhWoN1u2NyRT2LJQKSGv8pV3r6LQ1ThuW54rV+7pNqFfrdUBK0CaCuHjUlOI5qL/wZvYxepQsaRbIGglcBVWHfzPtgchHIv/o7Ck9easSGCqLRgCVshoR9qsC+jQp4h4mpmPUAv4JyAdj8G7onwuEuw0tOFfAabC9DjTJyx6Gv5TP55vD8D+04YjeMIB7fu2GfII6fMeDnOTWoy2E1BoYv/BlsBvyHiLYWH1/lDvC++hoh3XL9jrY+7QFiklAC0tZ6w2e2lmIeNpxfyuQRe53LsS3gYdiH+V4TPvS+FZ3XfTXit+1C/xmaGd2YvbNJciJAvu8URv4ae4GgKJ1f/ISyhK9bdWJGvQopJFLuFSTNqj3OO6+hw9ZI/IJfJzMeXudVdx07AJsQWYwS2zDAyvvTaIf0yLugmr2IoAUhWHltzXEjIrPZy/Ay7QF9DPHevJwS0mR3DcT12B9EZR/j5LdT9D7asUooTslnLDcR3bkNKrU7BKmX2CDU1PoPLf59CK8O8m3DyrLq4hkemlvi4yOatDF/sd8CWGZfEwbExJkiRUwKQvEIXKLDJLTsEtCtVPfFuTVxo0lYO250tDvcGtPlk4HOFTBgstopiT7clhVdM5LGdHePyCLYfRaE4D03utKRrUZ/6PcEF1bpw+GNiCqPUC+9Y2t+0rGj5ZvahvOXxO4xsCB7CSJ0SgOQ1YGORhaSxUVAUtqHw8rUXiG+t9d8pXEsgdJOZkMqDaVSv68qOpHDxpieIqU78Rn4Z0OboRM5IBXDkwi9aPixRKNJm2H4bpdqujMd+cB5c+YlEi48mGUmCEoC2kph9H1JoZe+0T0SJQjLoOKuteWy5W2e2J+zCvTKgzb4Br1c+EFIv4a8JxBFyjLgLalWMDD64zLZzflUMIayn+CJdGyulTHgbvnCBqYKqXNcpJKUEIB0hCUDoRLVKs0dAm7hrgRfq3gWrP1/IvwPabI9V8ZMwIT1bTyYQx1PYUENnRhFR13LFq2p8CluuHOKRGCLIY3UaSrGK8neiBCDjg747OrO+sW/svVeRUQKQjpB1q101AQhZPrU05hhCEoxC9RjAyhiHfCleixU+ks5tgdXp74zHhgDitprCK18c1qPV7d1x3u5rHVxfuKV/o4/L3xZTGHeX+Lh7KVyaPciS0fydMpIJDw+/Nti9H8O5iYUSgHSEvMFGph1kiULijjsBCOmC2z6gTRN2p1jIbtgeEyNifl1d3RgKf+e8SVjPSxReDGizS0KxpK6xsfkS7ztdIvle3nH8zy4YV3Y3eQeup/iu/BbCVnWEcc47S+hLfDhXx3Nq4qEEIB1vBrQZhBW66GpCJgiFvP5yrA1oMyDwuULWjIOtX/4XMBMrOytthZRuLWYjpXKFHCu+crMVZn7N+KbNB63+jHP+Ij78GW0Bfpv3fp95F459NMYQ3sGW9BUamtnYeZQ+dNAul+VH3pdUXfAXS0e5B2M8P5FTApCOtwibbBjHbNs4ZQgbMw0dayxVSAIQunzvVmyCUojNgAuxAkd/wjYf6qo9OXEIGdaqtASgmG2Ku7ybz9y7efaFY2dUN1YP9tnsGOf8Hk0u+5E508YcPW/62EgvtB24B6vBUOg7Iod91q6LOoDFI936bBWf88X1VD7RuDaovkVF0V4A6WjCuroGFGi3ZdqBFqk/YTPi4x4jC6lxEFrk5XWs1v95RRy/Ctt46nCsW/OfwO9af54k2hLTXUnIUq3lCcYTkgD0jEmAm6ipcXnCqpbGYS5WYvs7WFXUjetxNGPJdQ22r0MsFo90i0fV+Y+3wM+9LV3tSA74aSbLN9/c3YXeKFQMJQDpWUfhBKCYnesqQUhN7jzhd9SV4lKsPnyp48Efbf25EKtRcD9wHzZ5qcssGYpAyMU0ZOllVArVi4CI1pdL0WqBiViv2u7Yst2VWDK9KokA6ke7t4Cjhtf5CXnPZJdhAp7BOFrwLMbmS9yytNpFWUY9UUoA2kpqF76Qu9TN0jwRJQhJADKUv9lQIYUKzRRrHbY73KOEbRDUmYHAya0/67DNTGZjdzVx77SWtq0D2jQmGE/IsQZgvVpp7M4p1ltY7qqQsdgcnW2xz9xCYAGBNyJLRruHsa3hux0lAOkJKXrR1RKA0EpeIReCStOALQm7i+I3LOlIPz5IBpZgs49vouv1kIQKmXeR5GsPOVYG270wztLZEo//AS7DVulsag3wE2zSbkhPULekSYDpCbn76GoJQFeLt1grgIOxjWqiHscfjk1oqgUmpf1CYxLSM5PkhTY02ehqQ3E9XS/s4n4P7V/8wW5WzsWKsu2RdsBpUQ9AekK6FLMBbSpJT+gmbQTOxvaqv5zot24egg0JfA44C3g77RccoZD3c5ITJEOP1WVulE65on5YzuemAHuBz3jci2Szd8w9f1SiE/qOur62z9Zr/ckOfwi4gXiWk/H3zLlw7B8SOPwNwBmBbYcDD2G9e3VJnqNK0GXe2N1QyCz0kOVslSTu5X2V5CXgGGAv7Asn6m7E47CNjbpTIZqQXq8kt+ANXQqa5LyEkk28ovasFp9bBHwPOAbc0Q4udrncSxOvWPTtpOI4+fJXdhu41r/k4FZwU4DP4DgT734/aeaiB06Z8fKgOA9P+MV/g62BefTAPT2UAKQn5ItuTdpBFqknJQAb/A3rERgMHI8tYYqqkt0QbPJRVy0LvalKSwBCj1XxCcCkGQtPdd7/2LX/mqqc57LJMxcVs5S1JKdcUT8sk8k8QMfv2cNyLvPbL930bK8YDp/Fkp9S7A18Pu7zU2mUAKSnO/YAdJka2DFoxCYITsLKDO8NTAf+Qnm7nG2LrRRI8sIYl5D3c6X1AKyjwus2nDbrlS3AXVOonYfvTL2yIaQEdslyvuVyCi73dPuvfWeLqTEcfj/KS5YnxnZiKpTmAKQn5MunO/YAeKywRjHlPuMQ534EeeC51p+ZWEGnw4AjWl97+N7rZlfgAuC7yZ+mSL0V0CbJiaQhy1ZDYk5VYy57BM4PDGjarynfcgxwYxxxTK1p6NtMc9hdtHMTgZ9GHMKBZT7+oDjOSyVTAtBWEhPZ+hBW5a+r9QCExOuwC2PctQAqyWrg160/YCsJvgwcS3gv3LewqoKr0n4xZQi5mJZbZ6EYO0QUc6pcJj/G+8Dha+9j29tg3WYtO1blghO4OOII+Xt25iPYCoJyeuy6FA0BpGN7wiacrEo70CKtJ6yS20fSDjRljwAnYPUE/h74mK2Ak9IOvEwhZX6TTABCtoROsjRxafLhtRMyMdZZqPJFzJVwscRR7nO2UOHDPVFTApCOkEy1mTL2pU5RSH31bdIOskI8g3Vb/j6w/TFpB1ymRQFtQi7KUQk5VhIb4JTF40O2rG5t7J+MK445549eQWjC5IkjjoYyH7+E9IcmE6UEIB0hdznL6JrZ6OKIXn9P8T5wImFfXvvT9WpDbGxhQJuhWDdsEkJ2agyJOVVzpo193HtXcGMc56nfbNB798UWiHMezw8DWnrnMj+KIYL7y3z8H2OIqaIpAUjHbgFt0tqJq1wvBbQZn3aQFWYNMC2g3ebYBbKrWk7hJZJ9sc1f4pbBir8UEjpEkx7nfCabm4zvtBbFWgeTbj5z71jHt1c0rbgG29eiQx6+N/vC0Y/HcPgGoNRCQ3ngljjPTSVSApCOkC+eF9IOskQhO2PtmnaQFehewpZRDk870DJ4wjZ22S+BWHam8G6cqwl7P6du9gXjFjqX2dfjHmrn10855w+4Y/qY8KGCEj1SM6HlP/3d/4C72retn/CW9+70udPGXBJjCOdT2nLkn9B1v3NLplUAyXN07wTg6YA2IT0gPc37wMtYZcHObJF2oGV6FNukpTP7QVBXcjlCkown6ELDcLOnja4DDj3xytpR2Rwfw+WzWedeuOOCMS8nGccfvlbdCJx7/BX1l/XKtxzgMpmB+TzLWpqanphfMz7uvR7+CXwRK6cdOlz2V+CbSZ4jScfh2F1IZz/vxhzDLgExeIpfK77BgwHPPT3G1+eANwNiGB1jDF3V7yh83sqZCLgw4PlPjfk1hrz/3yb6LZ03dU9AHGfHHIPE50hsuKnQ3/j/CC8J3e1oCKCtuOsAHB/QppZ4C9XEyRO2d/ZxaQdagUI+j12tNsSmXqLw/JZBwKdjjGEb7ALRGY8lCdI1/REYBVwC/GOT360CfoEtw/0i3Xf77YKUACSrCvhCQLtyZ7Om7dcBbU5IO8gKtG1Am7j3Lk9iQ5S5AW3OifH4X6FwD8MCbCWOdF2rgcuwIcfNsTLBOwADsZoasc+JkMoSMgSwKsbjTwk4vqe8kpZpDwGAfdjWBsRxWMxxdCV9gPcofM4GlHGM5wOe/8wEXusQrM5FoVgKzRUoxWBsmK/QsU9O4DyIpEo9AG054rkL2gq4IqDdYuCxtE9CmdYAdwS0u47usclNFA7FEqfOLKO8BDVkfktITflyLSesl+iHRFs10mGzvQuV4V4B/CqB8yCSKq0CaGtL4D5sT+mQqnYhMtgFMaQAzo9IZj+CuF0PfInOk6nxwI+xcbhKNoawKnalyhK20c+DZR5nVUCb2GrFb6IG2wuhs5naw4BfAv9NNDtNXg58NqDdZUDcs9XbmFRTu6Xr4z/jvR/nnGvJO/f0a+uXP/hIzYSWJOOoqfGZ2l6LJvis24+86+cc9U2ee+dPr45qm+tgE2cu2sk5fxQ+syOetzLe/fmOi0b/M+k4uqskxvsqyeEUKFKxkZXARcDPKG8/8D7AbYTVcV+FrfNeXcbxHgQOKdDmImBGGccIdTs27FHIT7Fx2biKlAzBJh2uA24q8rF9sPfCotY4ZxPtSpEMdqf75YC2n8VWCpTqKuDcAm3exIoNJbEhyi2EJX8LsDkjb5R4nN7A1YTN6n8FGzNOdEOYiTNqpzj8dbg2PTALM5n85DsuGFew0l8UpsxatHM+zzzaFmNa63EXz51WfW0ScRx1fW2fgWv9ddiN2IeTRMddTWRPn3/hqLhXbHV7GgLo2NbY3WkDcB7WhV+sfbGJJqGbuMygvIt/pZlG2Kz1M7C6+J+M6Li9sLK507CLxxLgWkob1/040A/7QvwRdhG6H9udb5cy49wV620Kufgvo/QqZxuETHraDrs7T8J5hO13cRA2k/tMih8y+hRWmyLk4p8HTifhi//kmQtPd87f3s7FH2BsPp955KSZtXvGHceJV9aOyudZQPuVGPs7/DWTZy66OO44amp8ZtBaPx/4X9rrIfIc19vnHjj+mmX94o6lu1MCUNgOwJXYndFvga8CH6P9fcuzWHfx/2JL4Z4kvKzpQuAHab/YiK0Avh7Ydndsl7xnsWpeexG2FnwrrLDSVGyOxf3YHftjWEJ1IB+8z/ek+Pf8f23y//tiF5WrsSpxK7CL+EwswdgT63HYdK/5LDACG+u/EPgLNimv0HK0DS6l/KI0TxC22cl04DetsQ3a5HeDsGGCg4CzsDH1x4FXS4hnJZb8hcT0kdZjLcYS86OxZV6b/j23w87xd7Ck4X7CP4NXk/D8m6lXNmzvcdcVaNY/6/wtBO/5W5qqFn8Dbf/eH+Lh0imzFu0cZxy1vRdN8YWHaj7eq2ldnCtFegTNAQjXB3tTbvzGfAOb8NaIVWjbjtImta0HJpHCuGMC/g+7sw8ZCgC78G+ohteELXtb2frfddj53RK78A+guFnxW2IJWjE7vP1Xgd8Pbv1pb916E9YDsjnlbXCzABtOKdcKbAgsJOk4uvUH7I54DXb+Ohqz91hyVOya6t9jCUfIBFmwrbTPav3ZYG1rjAPKODe/J2w/hkg15VpOdm2TxbY8H5t4Rf3H5sJzccRx0vfqhuLynwpoms17pgIXxHVOnHOnh0yCct6fDnwvrjh6AvUAlGd7rKLdeGzCUqkz2r9KTB/sCnE6pY1d98bO8c7AAdiywYOwO7oRlPaFv3cRbauwoYRS9caGksq5+L8BTCa6krQ3lPCYXq2vo7MJe47St/KdRXmlf/tT3sX/cWyYLo2yv3sEt/Q+vG2Rspn87oTOCcvHu1mTDz4nbvjEmUu2jjOW7k4JQPrOo/vvQtWETcK7K+1AKC4B2IN0a++/jd2tR1kV8j7sbjcO5exU+DXSuZv7Ezak814Kxy6Kc/GtDnKZrrnyqHdjvkvGXSmUALS1Bhs7jnvpTSM2qen7ab/ghDRiM7nPIeFJVpsotNnOxsopyFSuf2GlSqPeFMpj1ShLnVHfmSFlPv5i7D2yKobYNpXDEo7PkGJ5ZUf+xdC2mUwuuG2xWloy4c+diXujMh8ay7LbakauijeW7k0JQFs5bJncfsS3F/hL2NjyzWm/2IR54Brszjquu9CO5IAHKG4Z4I3Y8EVsX7ztWI8loHsD9TEd4y3srjdkBn4xyk0AAOZjQzzzia8exnPAwVjCkega+025fG4uITUOHM/fcf7Y2IYJ7/z26GX4oBLkuYzjtnjPSub/Qlp5XFA76ZgSgI49i90tHoF1E0bxZbQC+AZ2AQzZNre7egm78/okMI/y6ix05t/YbPazsNUcn8LW8YdqxCYx7o79zWZif7c4xopXYpURq7EENO4NSv6BrViYH+FzbhfR8yzFegL2xyryRdVj9AQwEVva+WiEr7tksy/a5XUK73uwLuPyZ+BcrN3dLVXuK8A7nTZy7rtxby/cNGr0zwslIw7+vnlj/6vijKMnUCGgtt6l/QlFu2BfSp/FLgihe02/DfwZG/++h/jvOE7Cigl15q/Yl2GlGAQchRUwOhgYWcJzvIUtpVyIrXd/DIjri2orrAdnAlY0phob/y7m89SE7V3+LDYu/wC2yiENe2HDUYcRfu7zWA/FC8DfWuP/G2FL+oq1PTaH5HDsnIfOy2jBluI+gJUertgKcpNm1p6G81fjP/zd4zz1OdyUedOrE/m8Tpm1aOe8Zy6+zUS8RAsBHX/Nsn69mtbd4Dyn0uZG1d/T1KfltPnfGh/3xljdnhKAtjpKADa2JdZFOwab/T8IqwvwPlbIZyV2IXoFuwjF8aXYnW2Ora6oxmafb40V4+mLjQ+/h53n97C68rVEW52vFJu1xjsSSxA2xy5UA7CehHf54L1Ri70v0pwL0ZERWM/AIGzt/QDsPL/fGvtyrCjRUtJJWDJYgrvhszcQWwXQC3tvrAFexz5/dcTXuxS5qTUNA1r6Nv2P95lx+HwzuGf6D1p9/81n7p3o+6Smxmfq+yw8OOcy+5N3/TL4ulxvf++8c8e+nfQ5mTzrlbE+lz2KjN+BPO/knHvgzmnVcQ3NSjeX9m6AIiIiFUFzAERERHogJQAiIiI9kBIAERGRHkgJgIiISA+kBEBERKQHUgIgIiLSAykBEBER6YGUAIiIiPRASgBERER6ICUAIiIiPZASABERkR5ICYCIiEgPpARARESkB1ICICIi0gMpARAREemBlACIiIj0QEoAREREeiCXdgAJ2xKoLtAmBzyfdqAiIiIiIiIiIiIiIiIiIiIiIiIiIiIiIiIiIiIiIiIiIiIiIiIiIiIiIiIiIiIiIiIiIiIiIiIiIiIiIiIiIiIiIiIiIiIiIiIiIiIiIiIiIiIiIiIiIiIiIiIiIiIiIiIiIiIiIiIiIiIiIiIiIiIiIiIiIiIiIiIiIiIiIiIiIiIiIiIiIiIiIiIiIiIiIiIiIiIiIiIiIiIiIiIiIiIiIiIiIiIiIiIiIiIiIiIiIiIiIiIiIiIiIiIiIiIiIiIiIiIiIiIiIiIiIiIiIiIiIiIiIiIiIiIiIiIiIiIiIiIiIiIiIiIiIiIiIiIiIiIiIiIiIiIiIiIiIiIiIiIiIiIiIiIiIiIiIiIiIiIiIiIiIiIisfl/Ap5n8M6dxg0AAAAASUVORK5CYII=;" vertex="1" parent="1">
          <mxGeometry x="574.04" y="350" width="120" height="60" as="geometry" />
        </mxCell>
      </root>
    </mxGraphModel>
  </diagram>
</mxfile>
